<svg width="648" height="648" viewBox="0 0 648 648" fill="none" xmlns="http://www.w3.org/2000/svg">
<g filter="url(#filter0_di_59_30)">
<path d="M322.174 627.966C492.163 627.966 629.966 490.163 629.966 320.174C629.966 150.184 492.163 12.3809 322.174 12.3809C152.184 12.3809 14.3809 150.184 14.3809 320.174C14.3809 490.163 152.184 627.966 322.174 627.966Z" fill="white"/>
</g>
<g filter="url(#filter1_di_59_30)">
<path d="M322.38 561.362C455.471 561.362 563.362 453.471 563.362 320.38C563.362 187.29 455.471 79.3984 322.38 79.3984C189.29 79.3984 81.3984 187.29 81.3984 320.38C81.3984 453.471 189.29 561.362 322.38 561.362Z" fill="white"/>
</g>
<path d="M160.5 480.893C167.926 470.303 175.082 461.45 180.734 451.728C192.925 430.761 193.754 409.292 182.2 387.38C165.438 355.515 159.285 321.431 165.438 286.287C176.606 221.592 213.66 177.362 275.559 154.64C300.897 145.314 328.267 142.929 354.836 147.734C412.394 157.899 454.849 189.398 479.346 242.752C495.632 277.929 498.901 317.745 488.573 355.108C478.244 392.47 454.987 424.953 422.945 446.771C415.23 452.037 406.993 456.319 397.985 461.642C396.057 447.812 390.636 437.859 380.433 431.243C374.965 427.87 369.143 425.108 363.072 423.007C359.215 421.541 357.459 419.535 357.999 415.503C358.019 415.292 358.019 415.079 357.999 414.867C357.826 402.31 357.826 402.31 370.036 401.075C398.718 398.182 420.515 379.722 428.211 352.178C429.234 349.436 430.972 347.018 433.246 345.176C446.902 333.024 444.645 306.502 429.156 296.857C426.864 295.375 424.991 293.33 423.717 290.916C410.62 265.84 389.826 253.65 361.742 253.766C355.801 253.766 350.168 253.766 345.442 249.483C345.014 248.987 344.451 248.625 343.822 248.442C336.936 247.554 332.885 244.584 334.178 236.772C335.065 231.12 332.885 225.199 338.614 220.28C344.343 215.361 343.436 207.221 337.823 202.052C336.609 200.905 335.181 200.009 333.62 199.414C332.059 198.819 330.396 198.538 328.727 198.587C327.057 198.635 325.413 199.012 323.89 199.696C322.366 200.38 320.992 201.357 319.846 202.573C314.484 208.128 314.561 214.975 320.039 220.974C323.125 224.331 325.15 241.073 322.894 244.738C322.566 245.278 322.084 246.011 321.582 246.089C313.037 247.535 306.787 254.556 296.969 254.016C287.591 253.277 278.168 254.684 269.415 258.13C260.662 261.575 252.809 266.97 246.452 273.903C243.539 277.044 240.887 280.418 238.524 283.991C234.435 290.106 230.943 296.124 224.539 300.927C212.561 309.916 213.622 334.548 224.906 344.983C227.211 347.102 228.965 349.75 230.017 352.699C239.835 383.04 261.786 399.976 293.883 401.23C298.628 401.422 300.653 402.946 300.036 407.672C299.998 408.314 299.998 408.959 300.036 409.601C300.036 420.885 299.921 420.75 289.64 424.916C274.208 431.205 263.484 441.563 260.378 458.826C259.935 461.372 256.52 464.285 253.762 465.385C234.394 473.102 213.952 477.786 193.156 479.273C182.567 480.102 171.919 480.295 160.5 480.893Z" fill="url(#paint0_linear_59_30)"/>
<path d="M328.26 372.408C316.474 372.408 304.669 372.408 292.884 372.408C283.118 372.565 273.681 368.878 266.609 362.141C259.536 355.404 255.395 346.158 255.077 336.396C254.653 325.555 253.399 314.541 258.684 304.203C265.59 290.7 276.893 283.486 291.476 283.081C315.703 282.406 339.968 282.56 364.195 283.081C387.149 283.583 402.773 300.229 402.966 323.241C402.966 332.885 403.429 342.53 398.703 351.499C391.643 364.905 380.224 371.521 365.507 372.177C353.085 372.736 340.624 372.293 328.183 372.293L328.26 372.408ZM328.395 356.977C337.171 355.8 343.112 351.576 344.964 344.651C346.179 340.119 344.964 337.534 339.891 337.534C334.104 337.534 328.318 337.264 322.531 337.669C319.167 338.182 315.855 338.995 312.636 340.099C314.179 343.957 314.892 348.451 317.496 351.248C320.1 354.045 324.711 355.145 328.395 356.977ZM379.028 317.57C379.028 310.954 373.242 304.801 367.146 304.878C361.051 304.955 354.666 311.455 354.705 317.415C354.9 320.645 356.312 323.681 358.656 325.911C361.001 328.141 364.104 329.399 367.339 329.433C368.893 329.449 370.435 329.151 371.872 328.559C373.309 327.966 374.611 327.09 375.702 325.983C376.793 324.876 377.65 323.56 378.221 322.115C378.793 320.669 379.067 319.124 379.028 317.57ZM302.895 317.203C302.868 315.643 302.534 314.103 301.913 312.672C301.291 311.24 300.394 309.945 299.271 308.861C297.005 306.67 293.962 305.47 290.81 305.524C287.659 305.578 284.658 306.881 282.468 309.147C280.277 311.414 279.077 314.457 279.131 317.608C279.184 320.76 280.488 323.761 282.754 325.951C285.02 328.141 288.064 329.342 291.215 329.288C294.367 329.234 297.367 327.931 299.558 325.664C301.748 323.398 302.948 320.355 302.895 317.203Z" fill="url(#paint1_linear_59_30)"/>
<defs>
<filter id="filter0_di_59_30" x="0.380859" y="0.380859" width="647.586" height="647.586" filterUnits="userSpaceOnUse" color-interpolation-filters="sRGB">
<feFlood flood-opacity="0" result="BackgroundImageFix"/>
<feColorMatrix in="SourceAlpha" type="matrix" values="0 0 0 0 0 0 0 0 0 0 0 0 0 0 0 0 0 0 127 0" result="hardAlpha"/>
<feOffset dx="2" dy="4"/>
<feGaussianBlur stdDeviation="8"/>
<feComposite in2="hardAlpha" operator="out"/>
<feColorMatrix type="matrix" values="0 0 0 0 0 0 0 0 0 0.00649999 0 0 0 0 0.1625 0 0 0 0.09 0"/>
<feBlend mode="normal" in2="BackgroundImageFix" result="effect1_dropShadow_59_30"/>
<feBlend mode="normal" in="SourceGraphic" in2="effect1_dropShadow_59_30" result="shape"/>
<feColorMatrix in="SourceAlpha" type="matrix" values="0 0 0 0 0 0 0 0 0 0 0 0 0 0 0 0 0 0 127 0" result="hardAlpha"/>
<feOffset/>
<feGaussianBlur stdDeviation="50"/>
<feComposite in2="hardAlpha" operator="arithmetic" k2="-1" k3="1"/>
<feColorMatrix type="matrix" values="0 0 0 0 0.24 0 0 0 0 0.306 0 0 0 0 0.9 0 0 0 0.2 0"/>
<feBlend mode="normal" in2="shape" result="effect2_innerShadow_59_30"/>
</filter>
<filter id="filter1_di_59_30" x="38.3984" y="38.3984" width="571.965" height="571.965" filterUnits="userSpaceOnUse" color-interpolation-filters="sRGB">
<feFlood flood-opacity="0" result="BackgroundImageFix"/>
<feColorMatrix in="SourceAlpha" type="matrix" values="0 0 0 0 0 0 0 0 0 0 0 0 0 0 0 0 0 0 127 0" result="hardAlpha"/>
<feOffset dx="2" dy="4"/>
<feGaussianBlur stdDeviation="22.5"/>
<feComposite in2="hardAlpha" operator="out"/>
<feColorMatrix type="matrix" values="0 0 0 0 0 0 0 0 0 0 0 0 0 0 0 0 0 0 0.13 0"/>
<feBlend mode="normal" in2="BackgroundImageFix" result="effect1_dropShadow_59_30"/>
<feBlend mode="normal" in="SourceGraphic" in2="effect1_dropShadow_59_30" result="shape"/>
<feColorMatrix in="SourceAlpha" type="matrix" values="0 0 0 0 0 0 0 0 0 0 0 0 0 0 0 0 0 0 127 0" result="hardAlpha"/>
<feOffset/>
<feGaussianBlur stdDeviation="40"/>
<feComposite in2="hardAlpha" operator="arithmetic" k2="-1" k3="1"/>
<feColorMatrix type="matrix" values="0 0 0 0 0.24 0 0 0 0 0.306 0 0 0 0 0.9 0 0 0 0.3 0"/>
<feBlend mode="normal" in2="shape" result="effect2_innerShadow_59_30"/>
</filter>
<linearGradient id="paint0_linear_59_30" x1="159.536" y1="479.871" x2="445.88" y2="193.526" gradientUnits="userSpaceOnUse">
<stop stop-color="#F25769"/>
<stop offset="0.97" stop-color="#FF3364"/>
</linearGradient>
<linearGradient id="paint1_linear_59_30" x1="375.962" y1="267.516" x2="253.719" y2="387.739" gradientUnits="userSpaceOnUse">
<stop stop-color="#FF3F84"/>
<stop offset="0.958333" stop-color="#FD1149"/>
</linearGradient>
</defs>
</svg>
